
<svg width="253px" height="52px" viewBox="0 0 253 52" version="1.1" xmlns="http://www.w3.org/2000/svg" xmlns:xlink="http://www.w3.org/1999/xlink">
    <g id="Page-1" stroke="none" stroke-width="1" fill="none" fill-rule="evenodd">
        <g id="Artboard" transform="translate(-5.000000, -7.000000)" fill="#000000">
            <path d="M70.9795296,33.2714078 C70.9795296,41.8055579 69.0021326,47.7271242 65.0472793,51.0362845 C61.0924259,54.3454447 56.2148466,56 50.4143951,56 L40,56 L40,11 L49.6893422,11 C56.0610504,11 61.2022826,12.5892439 65.1131932,15.7677794 C69.0241037,18.9463149 70.9795296,24.7807993 70.9795296,33.2714078 Z M64.8495376,33.2714078 C64.8495376,28.3947507 64.1794197,24.661116 62.8391639,22.0703919 C61.498908,19.4796677 59.8400916,17.7598011 57.862665,16.9107402 C55.8852383,16.0616794 53.6222173,15.6371553 51.073534,15.6371553 L45.7345087,15.6371553 L45.7345087,51.4281567 L51.1394479,51.4281567 C55.0503584,51.4281567 58.3130635,50.0892732 60.927661,47.4114659 C63.5422585,44.7336586 64.8495376,40.020353 64.8495376,33.2714078 Z M98.7655112,55.9771072 L93.1627332,54.489555 L104.916915,11.0228928 L110.519693,12.510445 L98.7655112,55.9771072 Z M144.43557,31.4426705 L162.232321,31.4426705 L162.232321,36.0145138 L144.43557,36.0145138 L144.43557,56 L138.701061,56 L138.701061,11 L165.462102,11 L164.802963,15.7024673 L144.43557,15.7024673 L144.43557,31.4426705 Z M191.973468,31.4426705 L209.770219,31.4426705 L209.770219,36.0145138 L191.973468,36.0145138 L191.973468,56 L186.23896,56 L186.23896,11 L213,11 L212.340861,15.7024673 L191.973468,15.7024673 L191.973468,31.4426705 Z" id="DIFF"></path>
            <rect id="Rectangle" transform="translate(10.500000, 33.000000) rotate(5.000000) translate(-10.500000, -33.000000) " x="8" y="8" width="5" height="50"></rect>
            <rect id="Rectangle" transform="translate(242.500000, 33.000000) rotate(30.000000) translate(-242.500000, -33.000000) " x="240" y="8" width="5" height="50"></rect>
        </g>
    </g>
</svg>